# xmcd
#
# Track frame offsets:
#	150
#	24275
#	36900
#	54090
#	67245
#	87042
#	109812
#	123825
#	140007
#	164862
#	186262
#	203237
#	221537
#	248640
#	261095
#	282870
#
# Disc length: 3965 seconds
#
# Revision: 0
# Processed by: cddbd v1.5.2PL0 Copyright (c) Steve Scherf et al.
# Submitted via: EasyCDDAExtractor 16.0.8.1
#
DISCID=eb0f7b10
DTITLE=Dimension Latina - 25 Años De Historia Vol. 5
DYEAR=2000
DGENRE=Salsa
TTITLE0=Melao De Caña
TTITLE1=Mi Adorada
TTITLE2=A El
TTITLE3=Azucar Pa' Un Amargo
TTITLE4=Divina Niña
TTITLE5=Mi Bajo Y Yo
TTITLE6=Mujer Impura
TTITLE7=San Benito (Tamborera N. 9)
TTITLE8=La Dicha
TTITLE9=Que Se Sienta
TTITLE10=Lloraras
TTITLE11=El Frutero
TTITLE12=Chancunche N. 1
TTITLE13=Viviendo Del Cuento
TTITLE14=El Derecho De Nacer
TTITLE15=Mapeye
EXTD=
EXTT0=
EXTT1=
EXTT2=
EXTT3=
EXTT4=
EXTT5=
EXTT6=
EXTT7=
EXTT8=
EXTT9=
EXTT10=
EXTT11=
EXTT12=
EXTT13=
EXTT14=
EXTT15=
PLAYORDER=
